<svg xmlns="http://www.w3.org/2000/svg" xmlns:xlink="http://www.w3.org/1999/xlink" version="1.1" x="0px" y="0px" viewBox="0 0 512 512" enable-background="new 0 0 512 512" xml:space="preserve">
  <path d="M256,2C115.7,2,2,115.7,2,256c0,140.3,113.7,254,254,254s254-113.7,254-254C510,115.7,396.3,2,256,2z M383,381.4  c0,14-11.4,25.4-25.4,25.4c-14,0-25.4-11.4-25.4-25.4v-95.8l-163,116.5c-4.4,3.2-15.8,7.6-26.4,1.9c-8.4-4.5-13.8-13.1-13.8-22.6  v-254c0-9.5,5.3-18.2,13.8-22.6c8.4-4.3,18.6-3.6,26.4,1.9l163,116.5v-95.8c0-14,11.4-25.4,25.4-25.4c14,0,25.4,11.4,25.4,25.4  V381.4z" fill="#63A9F8"/>
</svg>